<svg width="759" height="398" viewBox="0 0 759 398" xmlns="http://www.w3.org/2000/svg"><title>bowtie</title><path d="M453.58 286.612c-49.343 35.014-98.351 35.3-148.316-.143-12.72 24.52-36.768 33.774-60.047 44.269-43.92 19.606-87.648 39.641-131.568 59.343C58.257 414.744.849 377.917.705 317.477c-.144-79.093-.144-158.038 0-237.135C.85 21.14 58.401-16.02 112.737 8.022c51.84 23.136 103.489 46.702 155.136 69.982 15.984 7.251 28.225 18.366 37.536 33.774 49.2-35.015 98.544-35.3 148.181.143 11.184-20.655 30.24-31.15 50.736-40.07 46.992-20.799 93.696-42.265 140.735-63.208 56.16-24.997 113.28 11.878 113.424 72.795.144 78.473.144 156.987 0 235.328 0 61.06-57.264 98.078-113.28 73.082-51.217-22.993-102.384-46.273-153.6-69.218-16.272-7.346-28.849-18.604-38.017-34.013l-.007-.005zm-188.153 1.67c-.912-.62-1.872-1.24-2.784-2.004 1.392-4.007 1.728-9.111 4.512-11.735 13.632-12.498 14.111-12.785 6.528-29.434-.144-.286-.288-.62-.288-.763-1.728-7.728-6.672-8.157-13.489-6.774-18 3.864-36.144 7.394-54.48 10.16-3.408.478-9.456-1.86-10.56-4.483-2.304-5.248 2.496-7.728 7.152-8.635 5.568-1.24 10.992-2.29 16.609-3.387 15.503-3.386 31.2-6.63 46.56-10.017-.768-14.98-.768-14.98-13.824-14.98-2.928 0-6.384.764-8.832-.286-2.304-1.097-5.568-4.15-5.424-6.154.288-2.623 2.928-5.724 5.424-7.108 2.304-1.24 5.904-.286 8.832-.286 13.968 0 14.257-.477 13.2-15.265-20.16-4.15-40.513-8.491-60.816-12.785-5.136-1.097-10.848-2.29-9.168-9.254 1.536-5.868 6.816-5.39 11.808-4.484 14.592 2.91 29.184 5.533 43.92 8.157 18.48 3.387 17.376 2.767 27.312-12.642 7.152-10.924 4.368-19.13-3.12-26.81-5.424-5.724-11.808-11.257-18.767-14.501-51.217-23.756-102.72-46.892-154.362-69.839-35.52-15.885-71.376 7.251-71.52 46.081-.144 76.612-.144 153.409.144 230.077 0 7.87.912 16.028 3.12 23.613 6.96 24.377 36.912 43.506 69.504 28.24 46.367-21.609 93.263-42.264 139.776-63.35 7.68-3.625 15.264-7.632 23.04-11.353h-.007zm227.758-.764c3.888 2.147 6.96 4.341 10.416 5.868 10.224 4.77 20.64 9.397 30.864 14.024 40.943 18.509 81.743 37.162 122.736 55.527 24.672 11.115 50.592 4.77 63.168-17.125 5.424-9.54 8.4-21.752 8.543-32.82.768-77.566.624-155.13.288-232.702-.144-37.781-35.856-61.06-70.416-45.652-52.128 23.136-104.112 46.559-155.91 70.6-7.92 3.721-14.592 10.925-20.784 17.555-5.904 6.345-7.584 13.74-1.248 21.61 2.64 3.387 4.368 7.728 5.76 11.878 1.728 5.104 5.136 6.01 9.792 5.104 9.6-1.86 19.392-3.53 28.992-5.39 9.936-1.86 19.729-4.484 29.809-5.725 2.928-.286 6.528 3.387 9.6 5.248-2.16 2.623-4.032 6.01-6.816 7.87-2.304 1.527-5.76 1.384-8.544 2.004-18.48 3.864-37.104 7.871-55.392 11.735.48 15.123.48 15.123 14.448 15.123h4.512c5.136-.143 9.792.143 9.6 7.25-.144 6.488-4.368 6.775-9.168 6.775h-6.192c-13.2 0-13.2.143-12.72 15.122 3.888.763 7.776 1.717 11.808 2.624 17.231 3.72 34.464 6.917 51.503 11.258 2.784.763 4.8 5.39 7.152 8.348-3.407 1.717-6.672 3.53-10.08 4.913-.911.286-2.303-.477-3.407-.763-17.856-3.387-35.664-6.917-53.52-10.018-2.929-.477-7.297-.477-8.977 1.24-11.184 10.781-10.704 23.757 1.536 33.774 5.088 4.103 7.728 7.967 2.64 14.74l.007.005zM380.24 114.497c-46.56 1.097-84.24 34.537-85.2 81.859-.912 48.085 33.983 85.866 83.951 86.486 45.169.62 84.24-32.39 85.2-84.483.72-43.124-32.784-81.526-83.951-83.863z" fill="#333"/></svg>